<?xml version="1.0" encoding="utf-8"?>
<!-- Generator: Adobe Illustrator 19.0.1, SVG Export Plug-In . SVG Version: 6.00 Build 0)  -->
<svg version="1.1" id="Layer_1" xmlns="http://www.w3.org/2000/svg" xmlns:xlink="http://www.w3.org/1999/xlink" x="0px" y="0px"
	 width="85px" height="76px" viewBox="-136 149 85 76" style="enable-background:new -136 149 85 76;" xml:space="preserve">
<g>
	<g>
		<circle cx="-98" cy="187" r="38"/>
	</g>
	<g>
		<path style="fill:#FFFFFF;" d="M-98,221.3c-18.9,0-34.3-15.4-34.3-34.3s15.4-34.3,34.3-34.3s34.3,15.4,34.3,34.3
			S-79.1,221.3-98,221.3z M-98,154.8c-17.7,0-32.2,14.4-32.2,32.2s14.4,32.2,32.2,32.2s32.2-14.4,32.2-32.2S-80.3,154.8-98,154.8z"
			/>
	</g>
	<path style="fill:#FFFFFF;" d="M-71,206.2l19.7-33.1l-31.5,7.4l2.2-8.2l-30.4,12l6.6-21.4l3.2-9.5l-29.4,6l17.7,3.5l-13.8,28.4
		l9.2,14.4l0.1-0.5l28,1.4l0,0l17.2,1c0.1-0.1,0.1-0.2,0.3-0.3l0.1,0.2l0.6-1C-71.1,206.4-71,206.4-71,206.2L-71,206.2z"/>
	<g>
		<polygon points="-111.3,163.2 -124.9,191.3 -118.1,201.5 -106.5,164 		"/>
		<polygon points="-103.9,155.7 -124.1,159.5 -106.2,162.6 		"/>
		<polygon points="-111.8,187.9 -84.6,180.7 -83.1,175.1 -111.5,186.3 		"/>
		<polygon points="-112.3,189.3 -113.2,192.4 -84.4,186.9 -71.9,204.6 -54.8,175.7 		"/>
		<polygon points="-113.6,193.8 -116.4,203.4 -88.9,205 -85,188.5 -85,188.4 		"/>
	</g>
</g>
</svg>
